<svg viewBox="0 0 900 356" width="900" height="356" xmlns="http://www.w3.org/2000/svg" role="img" aria-label="Étude d'événement sur mes contributions quotidiennes autour de mes pull requests mergées en amont. n = 4 événements, 2 épisode(s) indépendant(s). Plancher de détection : 13.8 contributions/jour, pour une moyenne de 1.1. Aucun horizon ne se distingue de zéro.">
  <style>
    text { font-family: 'JetBrains Mono', 'Cascadia Code', 'SFMono-Regular', Consolas, monospace; }
    .title    { font-size: 15px; font-weight: 700; fill: #24292f; }
    .subtitle { font-size: 10.5px; fill: #57606a; }
    .tick     { font-size: 9px; fill: #57606a; }
    .footer   { font-size: 9.5px; fill: #57606a; }
    .axis     { stroke: #d0d7de; stroke-width: 1; }
    .zero     { stroke: #57606a; stroke-width: 1.1; stroke-dasharray: 4 4; opacity: 0.7; }
    .ci       { stroke: #0969DA; stroke-width: 1.6; opacity: 0.5; stroke-linecap: round; }
    .dot      { fill: #0a4da2; }
    .blind    { fill: #0969DA; opacity: 0.11; }
    .evline   { stroke: #0a4da2; stroke-width: 1.2; stroke-dasharray: 3 3; opacity: 0.6; }
    .evlab    { font-size: 9.5px; font-weight: 700; fill: #0a4da2; }

    @media (prefers-color-scheme: dark) {
      .title { fill: #e6edf3; }
      .subtitle, .tick, .footer { fill: #9198a1; }
      .axis { stroke: #30363d; }
      .zero { stroke: #9198a1; }
      .ci   { stroke: #58A6FF; }
      .dot  { fill: #a5d6ff; }
      .blind { fill: #58A6FF; opacity: 0.13; }
      .evline { stroke: #a5d6ff; } .evlab { fill: #a5d6ff; }
    }

    .ci, .dot { animation: appear 0.5s ease-out backwards; }
    @keyframes appear { from { opacity: 0; } }
    @media (prefers-reduced-motion: reduce) { .ci, .dot { animation: none; } }
  </style>
  <text class="title" x="24" y="36">La même méthode, retournée contre moi</text>
  <text class="footer" x="876" y="36" text-anchor="end">29/07/2026</text>
  <text class="subtitle" x="24" y="54">Étude d'événement sur mes contributions quotidiennes autour de mes 4 pull requests mergées en amont.</text>
  <text class="subtitle" x="24" y="68">Écart à la moyenne des 7 jours précédents. Barres : intervalles de Student à 95 %. Zone pâle : sous le plancher de détection.</text>
  <clipPath id="plot"><rect x="74.0" y="90.0" width="790.0" height="168.0"/></clipPath>
  <polygon class="blind" points="74.0,-61.8 111.6,-53.5 149.2,-46.6 186.9,147.0 224.5,141.9 262.1,142.6 299.7,140.6 337.3,140.3 375.0,141.7 412.6,135.4 450.2,135.8 487.8,143.2 525.4,145.3 563.0,137.4 600.7,124.3 638.3,129.4 675.9,130.4 713.5,122.9 751.1,138.6 788.8,147.1 826.4,143.7 864.0,131.8 864.0,214.2 826.4,202.3 788.8,198.9 751.1,207.4 713.5,223.1 675.9,215.6 638.3,216.6 600.7,221.7 563.0,208.6 525.4,200.7 487.8,202.8 450.2,210.2 412.6,210.6 375.0,204.3 337.3,205.7 299.7,205.4 262.1,203.4 224.5,204.1 186.9,199.0 149.2,392.6 111.6,399.5 74.0,407.8" clip-path="url(#plot)"/>
  <line class="zero" x1="74.0" y1="173.0" x2="864.0" y2="173.0"/>
  <line class="evline" x1="337.3" y1="90.0" x2="337.3" y2="258.0"/>
  <text class="evlab" x="337.3" y="84.0" text-anchor="middle">merge</text>
  <line class="axis" x1="74.0" y1="258.0" x2="864.0" y2="258.0"/>
  <text class="tick" x="74.0" y="272.0" text-anchor="middle">-7</text>
  <text class="tick" x="186.9" y="272.0" text-anchor="middle">-4</text>
  <text class="tick" x="299.7" y="272.0" text-anchor="middle">-1</text>
  <text class="tick" x="412.6" y="272.0" text-anchor="middle">+2</text>
  <text class="tick" x="525.4" y="272.0" text-anchor="middle">+5</text>
  <text class="tick" x="638.3" y="272.0" text-anchor="middle">+8</text>
  <text class="tick" x="751.1" y="272.0" text-anchor="middle">+11</text>
  <text class="tick" x="864.0" y="272.0" text-anchor="middle">+14</text>
  <text class="tick" x="469.0" y="286.0" text-anchor="middle">jours autour du merge</text>
  <line class="ci" x1="74.0" y1="250.0" x2="74.0" y2="96.0" style="animation-delay:0.20s"/>
  <text class="tick" x="74.0" y="94.0" text-anchor="middle">↑</text>
  <text class="tick" x="74.0" y="260.0" text-anchor="middle">↓</text>
  <circle class="dot" cx="74.0" cy="147.9" r="2.8" style="animation-delay:0.20s"><title>h = -7 : +9.50 [-58.36, +77.36]</title></circle>
  <line class="ci" x1="111.6" y1="250.0" x2="111.6" y2="96.0" style="animation-delay:0.22s"/>
  <text class="tick" x="111.6" y="94.0" text-anchor="middle">↑</text>
  <text class="tick" x="111.6" y="260.0" text-anchor="middle">↓</text>
  <circle class="dot" cx="111.6" cy="140.6" r="2.8" style="animation-delay:0.22s"><title>h = -6 : +12.25 [-53.22, +77.72]</title></circle>
  <line class="ci" x1="149.2" y1="250.0" x2="149.2" y2="96.0" style="animation-delay:0.24s"/>
  <text class="tick" x="149.2" y="94.0" text-anchor="middle">↑</text>
  <text class="tick" x="149.2" y="260.0" text-anchor="middle">↓</text>
  <circle class="dot" cx="149.2" cy="133.3" r="2.8" style="animation-delay:0.24s"><title>h = -5 : +15.00 [-48.48, +78.48]</title></circle>
  <line class="ci" x1="186.9" y1="214.0" x2="186.9" y2="174.3" style="animation-delay:0.26s"/>
  <circle class="dot" cx="186.9" cy="194.2" r="2.8" style="animation-delay:0.26s"><title>h = -4 : -8.00 [-15.51, -0.49]</title></circle>
  <line class="ci" x1="224.5" y1="221.2" x2="224.5" y2="173.7" style="animation-delay:0.28s"/>
  <circle class="dot" cx="224.5" cy="197.5" r="2.8" style="animation-delay:0.28s"><title>h = -3 : -9.25 [-18.23, -0.27]</title></circle>
  <line class="ci" x1="262.1" y1="221.4" x2="262.1" y2="174.8" style="animation-delay:0.30s"/>
  <circle class="dot" cx="262.1" cy="198.1" r="2.8" style="animation-delay:0.30s"><title>h = -2 : -9.50 [-18.30, -0.70]</title></circle>
  <line class="ci" x1="299.7" y1="224.2" x2="299.7" y2="174.7" style="animation-delay:0.32s"/>
  <circle class="dot" cx="299.7" cy="199.5" r="2.8" style="animation-delay:0.32s"><title>h = -1 : -10.00 [-19.37, -0.63]</title></circle>
  <line class="ci" x1="337.3" y1="221.8" x2="337.3" y2="171.8" style="animation-delay:0.34s"/>
  <circle class="dot" cx="337.3" cy="196.8" r="2.8" style="animation-delay:0.34s"><title>h = +0 : -9.00 [-18.44, +0.44]</title></circle>
  <line class="ci" x1="375.0" y1="216.2" x2="375.0" y2="168.2" style="animation-delay:0.36s"/>
  <circle class="dot" cx="375.0" cy="192.2" r="2.8" style="animation-delay:0.36s"><title>h = +1 : -7.25 [-16.31, +1.81]</title></circle>
  <line class="ci" x1="412.6" y1="220.9" x2="412.6" y2="163.4" style="animation-delay:0.38s"/>
  <circle class="dot" cx="412.6" cy="192.2" r="2.8" style="animation-delay:0.38s"><title>h = +2 : -7.25 [-18.11, +3.61]</title></circle>
  <line class="ci" x1="450.2" y1="221.3" x2="450.2" y2="164.4" style="animation-delay:0.40s"/>
  <circle class="dot" cx="450.2" cy="192.8" r="2.8" style="animation-delay:0.40s"><title>h = +3 : -7.50 [-18.26, +3.26]</title></circle>
  <line class="ci" x1="487.8" y1="219.6" x2="487.8" y2="174.0" style="animation-delay:0.42s"/>
  <circle class="dot" cx="487.8" cy="196.8" r="2.8" style="animation-delay:0.42s"><title>h = +4 : -9.00 [-17.61, -0.39]</title></circle>
  <line class="ci" x1="525.4" y1="208.1" x2="525.4" y2="165.7" style="animation-delay:0.44s"/>
  <circle class="dot" cx="525.4" cy="186.9" r="2.8" style="animation-delay:0.44s"><title>h = +5 : -5.25 [-13.25, +2.75]</title></circle>
  <line class="ci" x1="563.0" y1="214.8" x2="563.0" y2="160.3" style="animation-delay:0.46s"/>
  <circle class="dot" cx="563.0" cy="187.6" r="2.8" style="animation-delay:0.46s"><title>h = +6 : -5.50 [-15.80, +4.80]</title></circle>
  <line class="ci" x1="600.7" y1="230.8" x2="600.7" y2="156.2" style="animation-delay:0.48s"/>
  <circle class="dot" cx="600.7" cy="193.5" r="2.8" style="animation-delay:0.48s"><title>h = +7 : -7.75 [-21.84, +6.34]</title></circle>
  <line class="ci" x1="638.3" y1="237.4" x2="638.3" y2="170.8" style="animation-delay:0.50s"/>
  <circle class="dot" cx="638.3" cy="204.1" r="2.8" style="animation-delay:0.50s"><title>h = +8 : -11.75 [-24.35, +0.85]</title></circle>
  <line class="ci" x1="675.9" y1="240.0" x2="675.9" y2="174.8" style="animation-delay:0.52s"/>
  <circle class="dot" cx="675.9" cy="207.4" r="2.8" style="animation-delay:0.52s"><title>h = +9 : -13.00 [-25.30, -0.70]</title></circle>
  <line class="ci" x1="713.5" y1="239.8" x2="713.5" y2="163.1" style="animation-delay:0.54s"/>
  <circle class="dot" cx="713.5" cy="201.4" r="2.8" style="animation-delay:0.54s"><title>h = +10 : -10.75 [-25.23, +3.73]</title></circle>
  <line class="ci" x1="751.1" y1="226.4" x2="751.1" y2="173.8" style="animation-delay:0.56s"/>
  <circle class="dot" cx="751.1" cy="200.1" r="2.8" style="animation-delay:0.56s"><title>h = +11 : -10.25 [-20.19, -0.31]</title></circle>
  <line class="ci" x1="788.8" y1="212.0" x2="788.8" y2="172.4" style="animation-delay:0.58s"/>
  <circle class="dot" cx="788.8" cy="192.2" r="2.8" style="animation-delay:0.58s"><title>h = +12 : -7.25 [-14.74, +0.24]</title></circle>
  <line class="ci" x1="826.4" y1="215.3" x2="826.4" y2="170.4" style="animation-delay:0.60s"/>
  <circle class="dot" cx="826.4" cy="192.8" r="2.8" style="animation-delay:0.60s"><title>h = +13 : -7.50 [-15.98, +0.98]</title></circle>
  <line class="ci" x1="864.0" y1="228.3" x2="864.0" y2="165.3" style="animation-delay:0.62s"/>
  <circle class="dot" cx="864.0" cy="196.8" r="2.8" style="animation-delay:0.62s"><title>h = +14 : -9.00 [-20.90, +2.90]</title></circle>
  <text class="footer" x="24" y="328">n = 4 événements, 2 épisodes indépendants. Plancher 13.8 contributions/jour contre une moyenne de 1.1, soit 13 fois l'ordinaire.</text>
  <text class="footer" x="24" y="343">3/15 horizons hors intervalle, 0.8 attendu sous H0. Fenêtres non indépendantes (3 merges en 3 jours). Ne conclut rien, et c'est le propos.</text>
</svg>