<svg viewBox="0 0 900 352" width="900" height="352" xmlns="http://www.w3.org/2000/svg" role="img" aria-label="Effet minimum détectable de causal-impact-lab par horizon, comparé à la réponse estimée. h=12 : |β̂| = 0.02 contre un plancher de 0.13 · h=24 : |β̂| = 0.01 contre un plancher de 0.16.">
  <style>
    text { font-family: 'JetBrains Mono', 'Cascadia Code', 'SFMono-Regular', Consolas, monospace; }
    .title    { font-size: 15px; font-weight: 700; fill: #24292f; }
    .subtitle { font-size: 10.5px; fill: #57606a; }
    .tick     { font-size: 9px; fill: #57606a; }
    .lab      { font-size: 9.5px; font-weight: 700; fill: #0a4da2; }
    .footer   { font-size: 9.5px; fill: #57606a; }
    .axis     { stroke: #d0d7de; stroke-width: 1; }
    .zero     { stroke: #57606a; stroke-width: 1.1; stroke-dasharray: 4 4; opacity: 0.7; }
    .blind    { fill: #0969DA; opacity: 0.13; }
    .blindln  { stroke: #0969DA; stroke-width: 1.4; fill: none; opacity: 0.75; }
    .beta     { stroke: #0a4da2; stroke-width: 2.4; fill: none; }
    .dot      { fill: #0a4da2; }
    .mark     { stroke: #0a4da2; stroke-width: 1; stroke-dasharray: 3 3; opacity: 0.55; }

    @media (prefers-color-scheme: dark) {
      .title { fill: #e6edf3; }
      .subtitle, .tick, .footer { fill: #9198a1; }
      .axis { stroke: #30363d; }
      .zero { stroke: #9198a1; }
      .blind { fill: #58A6FF; opacity: 0.15; }
      .blindln { stroke: #58A6FF; }
      .beta { stroke: #a5d6ff; } .dot { fill: #a5d6ff; }
      .lab  { fill: #a5d6ff; } .mark { stroke: #a5d6ff; }
    }

    .beta, .blind, .blindln { animation: draw 0.6s ease-out backwards; }
    @keyframes draw { from { opacity: 0; } }
    @media (prefers-reduced-motion: reduce) { .beta, .blind, .blindln { animation: none; } }
  </style>
  <text class="title" x="24" y="36">Ce que ce design pouvait détecter</text>
  <text class="footer" x="876" y="36" text-anchor="end">18/08/2026</text>
  <text class="subtitle" x="24" y="54">causal-impact-lab. Enveloppe : effet minimum détectable à 80 % de puissance, seuil bilatéral 5 %.</text>
  <text class="subtitle" x="24" y="68">Calculé sur les écarts-types publiés dans headline_irf.csv. Trait plein : la réponse estimée β̂(h).</text>
  <polygon class="blind" points="74.0,150.0 106.9,143.7 139.8,140.7 172.8,137.1 205.7,131.1 238.6,128.8 271.5,125.1 304.4,117.6 337.3,120.5 370.2,110.9 403.2,119.2 436.1,117.4 469.0,114.1 501.9,112.4 534.8,112.0 567.8,107.2 600.7,106.8 633.6,104.7 666.5,104.5 699.4,102.4 732.3,102.6 765.2,104.6 798.2,102.2 831.1,102.1 864.0,100.6 864.0,243.4 831.1,241.9 798.2,241.8 765.2,239.4 732.3,241.4 699.4,241.6 666.5,239.5 633.6,239.3 600.7,237.2 567.8,236.8 534.8,232.0 501.9,231.6 469.0,229.9 436.1,226.6 403.2,224.8 370.2,233.1 337.3,223.5 304.4,226.4 271.5,218.9 238.6,215.2 205.7,212.9 172.8,206.9 139.8,203.3 106.9,200.3 74.0,194.0"/>
  <polyline class="blindln" points="74.0,150.0 106.9,143.7 139.8,140.7 172.8,137.1 205.7,131.1 238.6,128.8 271.5,125.1 304.4,117.6 337.3,120.5 370.2,110.9 403.2,119.2 436.1,117.4 469.0,114.1 501.9,112.4 534.8,112.0 567.8,107.2 600.7,106.8 633.6,104.7 666.5,104.5 699.4,102.4 732.3,102.6 765.2,104.6 798.2,102.2 831.1,102.1 864.0,100.6"/>
  <polyline class="blindln" points="74.0,194.0 106.9,200.3 139.8,203.3 172.8,206.9 205.7,212.9 238.6,215.2 271.5,218.9 304.4,226.4 337.3,223.5 370.2,233.1 403.2,224.8 436.1,226.6 469.0,229.9 501.9,231.6 534.8,232.0 567.8,236.8 600.7,237.2 633.6,239.3 666.5,239.5 699.4,241.6 732.3,241.4 765.2,239.4 798.2,241.8 831.1,241.9 864.0,243.4"/>
  <line class="zero" x1="74.0" y1="172.0" x2="864.0" y2="172.0"/>
  <line class="axis" x1="74.0" y1="260.0" x2="864.0" y2="260.0"/>
  <text class="tick" x="74.0" y="274.0" text-anchor="middle">0</text>
  <text class="tick" x="205.7" y="274.0" text-anchor="middle">4</text>
  <text class="tick" x="337.3" y="274.0" text-anchor="middle">8</text>
  <text class="tick" x="469.0" y="274.0" text-anchor="middle">12</text>
  <text class="tick" x="600.7" y="274.0" text-anchor="middle">16</text>
  <text class="tick" x="732.3" y="274.0" text-anchor="middle">20</text>
  <text class="tick" x="864.0" y="274.0" text-anchor="middle">24</text>
  <text class="tick" x="469.0" y="288.0" text-anchor="middle">horizon h, en mois</text>
  <text class="tick" x="66.0" y="235.0" text-anchor="end">-0.1</text>
  <text class="tick" x="66.0" y="175.0" text-anchor="end">+0.0</text>
  <text class="tick" x="66.0" y="115.0" text-anchor="end">+0.1</text>
  <polyline class="beta" points="74.0,183.2 106.9,186.5 139.8,195.7 172.8,200.6 205.7,200.6 238.6,203.1 271.5,195.9 304.4,190.2 337.3,189.7 370.2,178.7 403.2,189.1 436.1,180.4 469.0,181.4 501.9,187.8 534.8,195.3 567.8,207.7 600.7,198.9 633.6,194.0 666.5,197.7 699.4,189.9 732.3,190.8 765.2,187.2 798.2,182.5 831.1,180.6 864.0,177.5"/>
  <line class="mark" x1="469.0" y1="88.0" x2="469.0" y2="260.0"/>
  <circle class="dot" cx="469.0" cy="181.4" r="4"/>
  <text class="lab" x="469.0" y="82.0" text-anchor="middle">h = 12</text>
  <text class="tick" x="469.0" y="197.4" text-anchor="middle">β̂ = -0.02</text>
  <text class="tick" x="469.0" y="107.1" text-anchor="middle">plancher 0.13</text>
  <line class="mark" x1="864.0" y1="88.0" x2="864.0" y2="260.0"/>
  <circle class="dot" cx="864.0" cy="177.5" r="4"/>
  <text class="lab" x="864.0" y="82.0" text-anchor="middle">h = 24</text>
  <text class="tick" x="864.0" y="193.5" text-anchor="end">β̂ = -0.01</text>
  <text class="tick" x="864.0" y="93.6" text-anchor="end">plancher 0.16</text>
  <text class="footer" x="24" y="324">h=12 : |β̂| = 0.02 contre un plancher de 0.13 · h=24 : |β̂| = 0.01 contre un plancher de 0.16. Les deux tiennent sous le plancher.</text>
  <text class="footer" x="24" y="339">Aucune taille d'effet minimale n'était pré-enregistrée : ce plancher ne tranche pas entre nul informatif et étude sous-dimensionnée.</text>
</svg>