<svg xmlns="http://www.w3.org/2000/svg" width="900" height="277" viewBox="0 0 900 277" role="img" aria-label="Outils utilis&#233;s"><rect x="0.5" y="0.5" width="899" height="276" rx="14" fill="#0E1116" stroke="#222A33"/><text x="44" y="58" font-family="ui-monospace,SFMono-Regular,'SF Mono',Menlo,Consolas,'Liberation Mono',monospace" font-size="11" letter-spacing="1.6" fill="#F97316">MOD&#200;LES</text><rect x="176" y="40" width="71" height="27" rx="7" fill="#141A21" stroke="#222A33"/><text x="188" y="58" font-family="ui-monospace,SFMono-Regular,'SF Mono',Menlo,Consolas,'Liberation Mono',monospace" font-size="11.5" fill="#E9EDF2">PyTorch</text><rect x="255" y="40" width="104" height="27" rx="7" fill="#141A21" stroke="#222A33"/><text x="267" y="58" font-family="ui-monospace,SFMono-Regular,'SF Mono',Menlo,Consolas,'Liberation Mono',monospace" font-size="11.5" fill="#E9EDF2">scikit-learn</text><rect x="367" y="40" width="71" height="27" rx="7" fill="#141A21" stroke="#222A33"/><text x="379" y="58" font-family="ui-monospace,SFMono-Regular,'SF Mono',Menlo,Consolas,'Liberation Mono',monospace" font-size="11.5" fill="#E9EDF2">XGBoost</text><rect x="446" y="40" width="77" height="27" rx="7" fill="#141A21" stroke="#222A33"/><text x="458" y="58" font-family="ui-monospace,SFMono-Regular,'SF Mono',Menlo,Consolas,'Liberation Mono',monospace" font-size="11.5" fill="#E9EDF2">LightGBM</text><rect x="531" y="40" width="51" height="27" rx="7" fill="#141A21" stroke="#222A33"/><text x="543" y="58" font-family="ui-monospace,SFMono-Regular,'SF Mono',Menlo,Consolas,'Liberation Mono',monospace" font-size="11.5" fill="#E9EDF2">YOLO</text><rect x="590" y="40" width="44" height="27" rx="7" fill="#141A21" stroke="#222A33"/><text x="602" y="58" font-family="ui-monospace,SFMono-Regular,'SF Mono',Menlo,Consolas,'Liberation Mono',monospace" font-size="11.5" fill="#E9EDF2">SAM</text><rect x="642" y="40" width="84" height="27" rx="7" fill="#141A21" stroke="#222A33"/><text x="654" y="58" font-family="ui-monospace,SFMono-Regular,'SF Mono',Menlo,Consolas,'Liberation Mono',monospace" font-size="11.5" fill="#E9EDF2">MediaPipe</text><rect x="734" y="40" width="84" height="27" rx="7" fill="#141A21" stroke="#222A33"/><text x="746" y="58" font-family="ui-monospace,SFMono-Regular,'SF Mono',Menlo,Consolas,'Liberation Mono',monospace" font-size="11.5" fill="#E9EDF2">lifelines</text><rect x="176" y="75" width="97" height="27" rx="7" fill="#141A21" stroke="#222A33"/><text x="188" y="93" font-family="ui-monospace,SFMono-Regular,'SF Mono',Menlo,Consolas,'Liberation Mono',monospace" font-size="11.5" fill="#E9EDF2">statsmodels</text><rect x="281" y="75" width="51" height="27" rx="7" fill="#141A21" stroke="#222A33"/><text x="293" y="93" font-family="ui-monospace,SFMono-Regular,'SF Mono',Menlo,Consolas,'Liberation Mono',monospace" font-size="11.5" fill="#E9EDF2">SHAP</text><text x="44" y="146" font-family="ui-monospace,SFMono-Regular,'SF Mono',Menlo,Consolas,'Liberation Mono',monospace" font-size="11" letter-spacing="1.6" fill="#F97316">DONN&#201;ES</text><rect x="176" y="128" width="64" height="27" rx="7" fill="#141A21" stroke="#222A33"/><text x="188" y="146" font-family="ui-monospace,SFMono-Regular,'SF Mono',Menlo,Consolas,'Liberation Mono',monospace" font-size="11.5" fill="#E9EDF2">Python</text><rect x="248" y="128" width="44" height="27" rx="7" fill="#141A21" stroke="#222A33"/><text x="260" y="146" font-family="ui-monospace,SFMono-Regular,'SF Mono',Menlo,Consolas,'Liberation Mono',monospace" font-size="11.5" fill="#E9EDF2">SQL</text><rect x="300" y="128" width="31" height="27" rx="7" fill="#141A21" stroke="#222A33"/><text x="312" y="146" font-family="ui-monospace,SFMono-Regular,'SF Mono',Menlo,Consolas,'Liberation Mono',monospace" font-size="11.5" fill="#E9EDF2">R</text><rect x="339" y="128" width="64" height="27" rx="7" fill="#141A21" stroke="#222A33"/><text x="351" y="146" font-family="ui-monospace,SFMono-Regular,'SF Mono',Menlo,Consolas,'Liberation Mono',monospace" font-size="11.5" fill="#E9EDF2">pandas</text><rect x="411" y="128" width="57" height="27" rx="7" fill="#141A21" stroke="#222A33"/><text x="423" y="146" font-family="ui-monospace,SFMono-Regular,'SF Mono',Menlo,Consolas,'Liberation Mono',monospace" font-size="11.5" fill="#E9EDF2">NumPy</text><rect x="476" y="128" width="64" height="27" rx="7" fill="#141A21" stroke="#222A33"/><text x="488" y="146" font-family="ui-monospace,SFMono-Regular,'SF Mono',Menlo,Consolas,'Liberation Mono',monospace" font-size="11.5" fill="#E9EDF2">DuckDB</text><rect x="548" y="128" width="64" height="27" rx="7" fill="#141A21" stroke="#222A33"/><text x="560" y="146" font-family="ui-monospace,SFMono-Regular,'SF Mono',Menlo,Consolas,'Liberation Mono',monospace" font-size="11.5" fill="#E9EDF2">Plotly</text><rect x="620" y="128" width="51" height="27" rx="7" fill="#141A21" stroke="#222A33"/><text x="632" y="146" font-family="ui-monospace,SFMono-Regular,'SF Mono',Menlo,Consolas,'Liberation Mono',monospace" font-size="11.5" fill="#E9EDF2">Bash</text><rect x="679" y="128" width="44" height="27" rx="7" fill="#141A21" stroke="#222A33"/><text x="691" y="146" font-family="ui-monospace,SFMono-Regular,'SF Mono',Menlo,Consolas,'Liberation Mono',monospace" font-size="11.5" fill="#E9EDF2">SAS</text><text x="44" y="199" font-family="ui-monospace,SFMono-Regular,'SF Mono',Menlo,Consolas,'Liberation Mono',monospace" font-size="11" letter-spacing="1.6" fill="#F97316">MISE EN PROD</text><rect x="176" y="181" width="64" height="27" rx="7" fill="#141A21" stroke="#222A33"/><text x="188" y="199" font-family="ui-monospace,SFMono-Regular,'SF Mono',Menlo,Consolas,'Liberation Mono',monospace" font-size="11.5" fill="#E9EDF2">Docker</text><rect x="248" y="181" width="117" height="27" rx="7" fill="#141A21" stroke="#222A33"/><text x="260" y="199" font-family="ui-monospace,SFMono-Regular,'SF Mono',Menlo,Consolas,'Liberation Mono',monospace" font-size="11.5" fill="#E9EDF2">GitHub Actions</text><rect x="373" y="181" width="64" height="27" rx="7" fill="#141A21" stroke="#222A33"/><text x="385" y="199" font-family="ui-monospace,SFMono-Regular,'SF Mono',Menlo,Consolas,'Liberation Mono',monospace" font-size="11.5" fill="#E9EDF2">MLflow</text><rect x="445" y="181" width="64" height="27" rx="7" fill="#141A21" stroke="#222A33"/><text x="457" y="199" font-family="ui-monospace,SFMono-Regular,'SF Mono',Menlo,Consolas,'Liberation Mono',monospace" font-size="11.5" fill="#E9EDF2">pytest</text><rect x="517" y="181" width="51" height="27" rx="7" fill="#141A21" stroke="#222A33"/><text x="529" y="199" font-family="ui-monospace,SFMono-Regular,'SF Mono',Menlo,Consolas,'Liberation Mono',monospace" font-size="11.5" fill="#E9EDF2">ruff</text><rect x="576" y="181" width="51" height="27" rx="7" fill="#141A21" stroke="#222A33"/><text x="588" y="199" font-family="ui-monospace,SFMono-Regular,'SF Mono',Menlo,Consolas,'Liberation Mono',monospace" font-size="11.5" fill="#E9EDF2">mypy</text><rect x="635" y="181" width="37" height="27" rx="7" fill="#141A21" stroke="#222A33"/><text x="647" y="199" font-family="ui-monospace,SFMono-Regular,'SF Mono',Menlo,Consolas,'Liberation Mono',monospace" font-size="11.5" fill="#E9EDF2">uv</text><rect x="680" y="181" width="84" height="27" rx="7" fill="#141A21" stroke="#222A33"/><text x="692" y="199" font-family="ui-monospace,SFMono-Regular,'SF Mono',Menlo,Consolas,'Liberation Mono',monospace" font-size="11.5" fill="#E9EDF2">Streamlit</text><rect x="176" y="216" width="150" height="27" rx="7" fill="#141A21" stroke="#222A33"/><text x="188" y="234" font-family="ui-monospace,SFMono-Regular,'SF Mono',Menlo,Consolas,'Liberation Mono',monospace" font-size="11.5" fill="#E9EDF2">Hugging Face Spaces</text><rect x="334" y="216" width="77" height="27" rx="7" fill="#141A21" stroke="#222A33"/><text x="346" y="234" font-family="ui-monospace,SFMono-Regular,'SF Mono',Menlo,Consolas,'Liberation Mono',monospace" font-size="11.5" fill="#E9EDF2">Power BI</text></svg>
